<svg width="25" height="22" viewBox="0 0 25 22" fill="none" xmlns="http://www.w3.org/2000/svg">
<g clip-path="url(#clip0_117_13691)">
<path d="M12.0913 2.56116C12.1479 2.53624 12.2125 2.51074 12.2769 2.52825C12.3402 2.54541 12.3885 2.59354 12.4234 2.64063C12.4507 2.69613 12.4502 2.7365 12.4249 2.79291L12.4131 2.81719C12.4034 2.84192 12.3887 2.86882 12.3874 2.89496C12.3382 2.92059 12.2862 2.91903 12.2304 2.91284L12.2116 2.91045C12.1908 2.90805 12.1823 2.90773 12.1634 2.89924L12.1521 2.89799C12.119 2.89731 12.1017 2.89965 12.0695 2.88875C12.0485 2.85062 12.0224 2.80746 12.0128 2.76593C11.9938 2.68386 12.0382 2.62392 12.0913 2.56116Z" fill="#907AD6"/>
<path d="M12.4129 2.81718C12.3932 2.78322 12.3864 2.75608 12.3873 2.7175C12.3883 2.67231 12.3858 2.67234 12.4231 2.64062C12.4505 2.69612 12.4499 2.73649 12.4247 2.79291L12.4129 2.81718Z" fill="#DABFFF"/>
<path d="M12.0913 2.56152L12.2713 2.57409C12.2564 2.6174 12.2274 2.67376 12.2229 2.71795C12.2189 2.7572 12.237 2.83281 12.2158 2.86652C12.2107 2.87462 12.1739 2.89301 12.1634 2.8996L12.1521 2.89836C12.119 2.89767 12.1017 2.90001 12.0695 2.88912C12.0485 2.85098 12.0224 2.80782 12.0128 2.76629C11.9938 2.68422 12.0382 2.62428 12.0913 2.56152Z" fill="url(#paint0_linear_117_13691)"/>
<path d="M12.778 4.77051C12.8515 4.80946 12.9347 4.82727 13.0153 4.85165C13.1269 4.88543 13.2387 4.92646 13.345 4.97149C13.3127 4.97493 13.3032 4.98101 13.274 4.96571C13.2138 4.93422 13.1335 4.91351 13.0679 4.89037C13.0665 5.03902 13.0582 5.20363 13.0308 5.34968L13.0309 5.39809L13.0438 5.40064C13.094 5.4121 13.1458 5.43347 13.1956 5.448C13.2258 5.4568 13.2612 5.46572 13.2887 5.47928L13.2926 5.49425C13.1814 5.47526 13.0665 5.43218 12.9596 5.39957C12.879 5.37499 12.819 5.34547 12.7354 5.3659C12.7419 5.32352 12.7815 5.27842 12.8004 5.2387C12.874 5.08373 12.8503 4.91985 12.778 4.77051Z" fill="url(#paint1_linear_117_13691)"/>
<path d="M6.18207 6.26712C6.23163 6.24935 6.24906 6.24314 6.30136 6.25736C6.27465 6.2689 6.25026 6.2785 6.22695 6.29504L8.65041 11.6207C8.66154 11.7223 8.69758 11.8471 8.76925 11.9293L8.72821 11.948C8.70063 11.9388 8.70173 11.936 8.68695 11.913C8.59159 11.7418 8.52968 11.5472 8.44694 11.3701C7.97292 10.3557 7.49413 9.34172 7.03185 8.32293C6.92616 8.09002 6.83009 7.85378 6.72514 7.62072C6.61134 7.36808 6.49762 7.11506 6.38234 6.86294C6.32853 6.74527 6.27375 6.62786 6.22062 6.50993C6.19203 6.44645 6.14916 6.35557 6.15253 6.28688L6.18207 6.26712Z" fill="#907AD6"/>
<path d="M17.8176 6.69002C17.8829 6.47754 18.0211 6.31667 18.2363 6.20635C18.56 6.04042 18.9397 6.04758 19.3028 6.08019C19.227 6.28087 19.0914 6.56202 18.883 6.68446C18.7761 6.70904 18.6779 6.78026 18.5674 6.80892C18.5064 6.82475 18.4413 6.84071 18.3779 6.84658C18.2906 6.85461 18.1983 6.84828 18.1123 6.86443C18.0282 6.88022 17.894 6.86042 17.8134 6.83751C17.785 6.79968 17.8176 6.75615 17.8178 6.71073L17.8176 6.69002Z" fill="#DABFFF"/>
<path d="M3.39629 11.9475C3.51597 11.6815 3.64514 11.4184 3.76443 11.1522C4.13621 10.3225 4.49526 9.48827 4.87463 8.6613C5.10903 8.15033 5.33574 7.63748 5.5665 7.12538C5.68503 6.8623 5.8146 6.6044 5.91802 6.33587C5.93149 6.30087 5.94607 6.26802 5.93584 6.23079C5.9697 6.21661 5.98408 6.22136 6.02073 6.22488L6.02417 6.24987C6.00349 6.30463 6.00576 6.35987 5.98374 6.41566C5.91201 6.59727 5.82273 6.77488 5.7426 6.95385C5.56025 7.36108 5.3748 7.76679 5.19138 8.17362C4.88118 8.8616 4.57915 9.5526 4.26384 10.2389C4.09338 10.6099 3.92546 10.9818 3.75906 11.3543C3.66987 11.5539 3.5595 11.7503 3.49519 11.9576C3.50405 11.9617 3.51201 11.968 3.52178 11.97C3.55713 11.9771 3.62595 11.9668 3.66538 11.9655C3.83147 11.9602 3.99758 11.9514 4.16372 11.9478C4.82334 11.9338 5.48376 11.9284 6.14355 11.9251C6.12292 11.7103 6.14043 11.4845 6.13787 11.2683C6.13259 10.8237 6.12083 10.379 6.11443 9.93433C6.10088 8.99143 6.08655 8.04869 6.07581 7.10574C6.07388 6.93462 6.06751 6.76356 6.06248 6.5925C6.05952 6.49148 6.04031 6.37577 6.07305 6.2787L6.09746 6.27793C6.10986 6.30713 6.11133 6.33763 6.12283 6.3667C6.15142 6.439 6.14861 6.52141 6.15125 6.5971C6.15515 6.70843 6.15781 6.81983 6.15977 6.9312C6.16526 7.24784 6.16819 7.5645 6.17393 7.88111C6.19023 8.78292 6.20535 9.68436 6.21448 10.5862C6.21841 10.9729 6.23137 11.3595 6.22791 11.7463L6.23406 11.9232L7.70779 11.9144C7.64973 11.9315 7.5939 11.9303 7.5342 11.9382C7.46211 11.9476 7.37642 11.9402 7.30303 11.9402C7.14185 11.9403 6.9834 11.9381 6.82378 11.9397C6.86638 11.9494 6.91331 11.9357 6.94585 11.9612C6.97327 11.966 6.9696 11.9706 6.99468 11.9558L7.00584 11.9611C7.03379 11.9709 7.06641 11.9685 7.09612 11.9687L7.09128 11.9803L7.03435 11.9854C7.07144 11.9867 7.11362 11.9837 7.14727 11.9988L7.16062 11.9958C7.18652 11.9912 7.21836 11.9992 7.24595 11.9993C7.33057 11.9995 7.41519 11.9996 7.4998 11.9994C7.53938 11.9993 7.58579 12.0044 7.62334 11.9935V12.0096C7.49058 12.0341 7.31985 12.0196 7.18303 12.02C6.878 12.0209 6.57297 12.0215 6.26794 12.0224L3.16797 12.0245L3.1686 12.0163L3.18569 12.0044C3.22236 11.981 3.31931 11.9596 3.36399 11.9678L3.38303 11.972L3.39629 11.9475Z" fill="#907AD6"/>
<path d="M12.0693 2.88916C12.1015 2.90005 12.1187 2.89771 12.1518 2.8984L12.1632 2.89964C12.1821 2.90813 12.1905 2.90845 12.2113 2.91086L12.2302 2.91324C12.286 2.91943 12.3379 2.921 12.3872 2.89537C12.503 2.91819 12.6155 2.95406 12.7073 3.02254C12.896 3.14727 13.0095 3.29416 13.046 3.50172C13.05 3.52439 13.05 3.54585 13.0492 3.56871C13.054 3.62034 13.0614 3.70802 13.0419 3.75661L13.0004 3.79226C13.0093 3.83205 12.9908 3.85284 12.9729 3.88889L12.9695 3.89824C12.955 3.93223 12.9216 3.97855 12.8966 4.00706L12.8846 4.02134C12.8658 4.04205 12.8793 4.02833 12.8503 4.04251C12.7854 4.07415 12.7297 4.1278 12.6634 4.16181L12.6464 4.14675L12.6281 4.17893L12.6164 4.17781L12.6131 4.15917C12.5967 4.16385 12.5868 4.16735 12.5728 4.17657C12.5553 4.18813 12.5441 4.18933 12.5228 4.19045L12.5121 4.17897C12.5 4.1959 12.5036 4.19597 12.4807 4.20398L12.451 4.18972C12.4257 4.19631 12.4102 4.20153 12.3899 4.21664C12.3629 4.21664 12.3654 4.21451 12.3411 4.22738L12.3167 4.23801L12.308 4.21296L12.2984 4.22738C12.2884 4.23634 12.2688 4.24326 12.2557 4.24876L12.247 4.23801C12.2282 4.29392 12.1724 4.27462 12.2033 4.33845C12.2268 4.38712 12.2281 4.45653 12.2129 4.50693C12.1772 4.53746 12.1414 4.53912 12.0936 4.54576C12.0592 4.55076 12.0283 4.55401 11.9932 4.55287L11.979 4.46311L11.9743 4.31787C11.8449 4.2546 11.7318 4.18374 11.6362 4.08324C11.4991 3.93921 11.4346 3.75543 11.4548 3.56764C11.4759 3.37153 11.5759 3.17196 11.7509 3.04443C11.8082 2.9708 11.9768 2.92321 12.0693 2.88916Z" fill="#DABFFF"/>
<path d="M20.8112 12.2646C20.8929 12.2545 20.9784 12.2646 21.0604 12.2698C21.061 12.3148 21.066 12.3697 21.0521 12.4131C21.0253 12.4969 20.9662 12.5794 20.913 12.652C20.8296 12.7659 20.7433 12.8699 20.6357 12.967C20.5183 13.0731 20.3703 13.2078 20.2199 13.2733C20.1372 13.3396 20.0225 13.3889 19.923 13.4331C19.394 13.6686 18.7267 13.8009 18.134 13.7781L17.8406 13.7531L17.5259 13.7297C17.6195 13.6915 17.741 13.6846 17.8422 13.6636C17.9814 13.6347 18.125 13.5913 18.2528 13.5342C18.3062 13.5104 18.3537 13.4788 18.4061 13.4543C18.458 13.43 18.5088 13.414 18.5563 13.3809C18.5768 13.3666 18.5987 13.3615 18.6192 13.3473L18.6768 13.3095C18.8388 13.211 18.9504 13.053 19.0604 12.913C19.0967 12.8668 19.1494 12.8118 19.1713 12.7592C19.1894 12.7158 19.2064 12.6773 19.2202 12.6326C19.2322 12.5936 19.2397 12.549 19.228 12.5091C19.2194 12.4797 19.2191 12.4502 19.2173 12.4199C19.1064 12.4229 18.9742 12.4348 18.8666 12.4131L20.1823 12.3947C20.2566 12.3987 20.3302 12.3916 20.4042 12.386C20.4718 12.3885 20.6662 12.3894 20.7146 12.3534C20.7115 12.3258 20.7059 12.3022 20.6973 12.2757C20.7326 12.2579 20.7719 12.2635 20.8112 12.2646Z" fill="url(#paint2_linear_117_13691)"/>
<path d="M17.8403 13.753C17.9555 13.7368 18.0749 13.7254 18.1882 13.7019C18.4094 13.6558 18.6204 13.5702 18.8169 13.471C18.8839 13.4372 18.9327 13.3844 18.9965 13.3488C19.0388 13.3251 19.1061 13.3037 19.1533 13.2879L19.1703 13.2826C19.192 13.2753 19.2107 13.2683 19.2338 13.2645L19.4985 13.2234C19.5942 13.2019 19.713 13.2102 19.8124 13.208C19.8567 13.2071 19.9072 13.2117 19.9504 13.205C19.9782 13.2007 19.9954 13.1973 20.0238 13.2019C20.0683 13.2092 20.1131 13.2123 20.1585 13.2123L20.1738 13.2122C20.1922 13.213 20.1983 13.2148 20.2176 13.2111C20.2402 13.2067 20.2477 13.2118 20.2696 13.2179C20.2602 13.2345 20.2519 13.2329 20.2331 13.2395L20.2196 13.2732C20.1369 13.3395 20.0222 13.3888 19.9228 13.4331C19.3938 13.6685 18.7264 13.8009 18.1338 13.778L17.8403 13.753Z" fill="#4F518C"/>
<path d="M12.4809 4.20372C12.5038 4.1957 12.5002 4.19564 12.5124 4.17871L12.5231 4.19018C12.5444 4.18906 12.5556 4.18786 12.5731 4.1763C12.5871 4.16709 12.597 4.16358 12.6134 4.1589L12.6167 4.17755L12.6284 4.17867L12.6466 4.14648L12.6637 4.16154C12.73 4.12753 12.7856 4.07389 12.8505 4.04224C12.8796 4.02806 12.866 4.04179 12.8849 4.02108L12.8969 4.00679C12.9218 3.97828 12.9553 3.93196 12.9697 3.89797L12.9732 3.88863C12.9911 3.85258 13.0095 3.83178 13.0006 3.79199L13.0422 3.75635C13.0185 3.92451 12.8936 4.08162 12.7435 4.18414C12.6962 4.21648 12.6429 4.24892 12.5866 4.26716L12.4386 4.32369L12.4282 4.43057L12.4257 4.54048C12.5825 4.59961 12.669 4.65444 12.7782 4.77043C12.8505 4.91977 12.8742 5.08365 12.8006 5.23862C12.7817 5.27834 12.7421 5.32344 12.7356 5.36583C12.6681 5.44315 12.5875 5.50275 12.4955 5.55629C12.5339 5.59227 12.5608 5.62272 12.5836 5.66805C12.5851 5.72919 12.5907 5.78533 12.5414 5.83462C12.5141 5.8619 12.4775 5.87617 12.4395 5.8885C12.4051 7.47446 12.4285 9.06305 12.4271 10.6494C12.4267 11.0458 12.4264 11.4422 12.4264 11.8386C12.4264 11.9468 12.4265 12.055 12.4266 12.1632C12.4266 12.2141 12.4183 12.2711 12.4376 12.3194C12.3796 12.3266 12.3174 12.3141 12.2597 12.3073C12.2753 12.191 12.2627 12.0682 12.2623 11.951C12.2617 11.8137 12.2626 11.6763 12.2595 11.5391C12.2574 11.4496 12.258 11.3503 12.2252 11.2648C12.2201 11.2517 12.2176 11.2386 12.213 11.2255C12.1859 11.1479 12.2 11.0482 12.2007 10.9665L12.2013 10.3782C12.2001 10.3491 12.2015 10.333 12.2127 10.3054L12.2224 10.3098C12.2366 10.3027 12.2492 10.2951 12.2625 10.2868C12.2731 10.2513 12.2686 10.2304 12.2584 10.1952C12.2494 10.1352 12.2583 10.0728 12.2612 10.0125C12.2658 9.91637 12.2694 9.82012 12.2695 9.72389C12.2697 9.55702 12.2508 9.39183 12.2485 9.22554C12.2458 9.02952 12.2425 8.83072 12.2461 8.6348C12.2505 8.38574 12.2556 8.13723 12.2581 7.88807C12.2596 7.74415 12.293 7.52338 12.2287 7.38959C12.2167 7.36469 12.2102 7.34203 12.2045 7.31547L12.2022 7.30436L12.2069 7.18983C12.1942 7.0898 12.2046 6.97883 12.2053 6.87792C12.2065 6.69633 12.205 6.51556 12.1965 6.33406L12.1523 6.28951C12.1528 6.27397 12.1542 6.26145 12.1484 6.24652L12.1439 6.23575C12.1389 6.21392 12.1414 6.20606 12.1303 6.18423L12.1135 6.18799C12.1074 6.18423 12.0995 6.18213 12.0954 6.17671C12.0774 6.15289 12.0956 5.94913 12.0734 5.89503L12.0057 5.88719C11.9856 5.91284 11.9881 5.94801 11.9855 5.97822L11.9769 5.89742L11.9447 5.87744C11.9287 5.86811 11.9113 5.86083 11.8973 5.84908C11.8619 5.81945 11.8523 5.77996 11.8506 5.73886C11.8469 5.65067 11.8959 5.60897 11.9587 5.54857C11.8361 5.47297 11.726 5.40871 11.6709 5.27938C11.6313 5.16849 11.6119 5.03602 11.6408 4.92117L11.644 4.90913C11.6569 4.85822 11.6746 4.81134 11.6949 4.7625C11.7477 4.68157 11.8131 4.622 11.9092 4.58115L11.9586 4.55237L11.975 4.5439L11.9793 4.46284L11.9935 4.5526C12.0286 4.55374 12.0595 4.5505 12.0939 4.54549C12.1417 4.53885 12.1775 4.5372 12.2132 4.50667C12.2284 4.45627 12.2271 4.38685 12.2035 4.33819C12.1727 4.27436 12.2285 4.29365 12.2473 4.23775L12.2559 4.24849C12.269 4.24299 12.2887 4.23607 12.2987 4.22711L12.3083 4.2127L12.317 4.23775L12.3414 4.22711C12.3657 4.21424 12.3632 4.21637 12.3902 4.21637C12.4105 4.20127 12.426 4.19605 12.4513 4.18945L12.4809 4.20372Z" fill="#907AD6"/>
<path d="M12.5833 5.66824C12.5527 5.66992 12.5254 5.66253 12.4961 5.65591C12.4673 5.63198 12.4331 5.58993 12.4292 5.55459C12.452 5.55352 12.4725 5.55483 12.4952 5.55648C12.5336 5.59247 12.5605 5.62291 12.5833 5.66824Z" fill="#DABFFF"/>
<path d="M11.6949 4.7624C11.7477 4.68147 11.8131 4.6219 11.9092 4.58105L11.9145 4.59749C11.8762 4.61902 11.8434 4.6303 11.8231 4.66729L11.8378 4.69151L11.9342 4.60789C11.9045 4.77783 11.8273 4.91073 11.8629 5.086C11.8674 5.10815 11.8623 5.12061 11.8608 5.14233L11.8624 5.15366C11.864 5.17181 11.8577 5.18601 11.8519 5.20313C11.8363 5.18915 11.8252 5.1754 11.8134 5.15879C11.7986 5.17873 11.7968 5.17278 11.8029 5.19901C11.8085 5.2237 11.8186 5.23788 11.8348 5.25826L11.8601 5.25459L11.8958 5.30123L11.905 5.28505L11.9202 5.27427L11.9019 5.23667L11.908 5.22604C11.9552 5.27928 11.9714 5.35047 12.0114 5.40878C12.076 5.43858 12.1915 5.48271 12.2292 5.53745C12.1969 5.57507 12.1459 5.52761 12.1572 5.59963C12.1651 5.64995 12.1687 5.69038 12.1604 5.74104C12.156 5.76787 12.1318 5.83757 12.1366 5.85972C12.1374 5.86339 12.158 5.87665 12.1583 5.8768L12.2048 5.89195C12.2297 5.96089 12.1997 6.07396 12.1951 6.14724C12.1911 6.20903 12.1947 6.27215 12.1965 6.33397L12.1523 6.28941C12.1528 6.27387 12.1542 6.26135 12.1484 6.24642L12.1439 6.23565C12.1389 6.21382 12.1414 6.20596 12.1303 6.18413L12.1135 6.18789C12.1074 6.18413 12.0995 6.18203 12.0954 6.17661C12.0774 6.15279 12.0956 5.94903 12.0734 5.89493L12.0057 5.88709C11.9856 5.91274 11.9881 5.94791 11.9855 5.97812L11.9769 5.89732L11.9447 5.87734C11.9287 5.86801 11.9113 5.86073 11.8973 5.84898C11.8619 5.81935 11.8523 5.77986 11.8506 5.73876C11.8469 5.65057 11.8959 5.60887 11.9587 5.54847C11.8361 5.47287 11.726 5.40861 11.6709 5.27928C11.6313 5.16839 11.6119 5.03592 11.6408 4.92107L11.644 4.90904C11.6569 4.85812 11.6746 4.81124 11.6949 4.7624Z" fill="#DABFFF"/>
<path d="M11.6948 4.7627C11.6744 4.81153 11.6567 4.85841 11.6439 4.90933L11.6406 4.92136C11.6117 5.03621 11.6311 5.16869 11.6708 5.27957L6.42988 6.15084C6.39729 6.19418 6.36096 6.2422 6.30107 6.25738C6.24878 6.24316 6.23135 6.24937 6.18179 6.26714L6.15557 6.24752L6.14255 6.23852C6.04858 6.17261 5.93162 6.1592 5.8303 6.10712C5.78713 6.09548 5.7502 6.08166 5.71492 6.05629C5.39456 5.82591 5.35813 5.32988 5.33057 4.99655L5.33872 4.95767C5.70625 5.12866 6.08235 5.23907 6.35691 5.53156C6.49497 5.67862 6.54126 5.82082 6.51968 6.01004L11.6948 4.7627Z" fill="url(#paint3_linear_117_13691)"/>
<path d="M13.0679 4.89014C13.1335 4.91328 13.2138 4.93399 13.274 4.96548C13.3032 4.98078 13.3127 4.9747 13.345 4.97126L17.8173 6.68971L17.8175 6.71042C17.8173 6.75584 17.7847 6.79937 17.8131 6.8372C17.8937 6.8601 18.0279 6.87991 18.112 6.86412C18.198 6.84796 18.2903 6.8543 18.3776 6.84627C18.441 6.8404 18.5061 6.82444 18.5671 6.80861C18.6776 6.77995 18.7758 6.70872 18.8827 6.68415C18.7501 6.79877 18.5644 6.85686 18.3883 6.89622C18.4216 6.93023 18.4465 6.9538 18.4576 6.99833C18.446 7.01479 18.4351 7.02691 18.4207 7.0413L18.4162 7.067L18.3876 7.05845L18.3814 7.03574C18.323 7.04257 18.2812 7.03875 18.2357 7.07353L18.2128 12.2675L18.1761 12.2574L18.142 12.2785C18.1187 11.9166 18.137 11.5473 18.1387 11.1845C18.142 10.512 18.1475 9.83943 18.1499 9.16697C18.1517 8.66303 18.1519 8.15931 18.1617 7.65541C18.1654 7.46783 18.1418 7.25754 18.186 7.07428C18.1907 7.05512 18.1769 7.03894 18.168 7.02124L18.1666 7.0037C18.1322 7.0575 18.1173 7.11888 18.0915 7.1761C18.0196 7.33585 17.9534 7.49761 17.8797 7.65674C17.6831 8.08119 17.4748 8.50132 17.2701 8.9228C17.1622 9.14497 17.0655 9.37212 16.9462 9.58986C16.8844 9.73061 16.8073 9.86534 16.7427 10.005C16.6832 10.1336 16.6352 10.2805 16.5578 10.4006L16.5507 10.414C16.5386 10.4358 16.5438 10.427 16.529 10.4466C16.5106 10.4712 16.4997 10.4893 16.4969 10.5188C16.4892 10.5978 16.4109 10.7099 16.3739 10.7868C16.2166 11.1138 16.054 11.4383 15.898 11.7659C15.8172 11.9357 15.7026 12.103 15.6766 12.2888L15.6082 12.2904C15.6291 12.2235 15.6476 12.1551 15.673 12.0895C15.699 12.0226 15.7814 11.9074 15.7775 11.8432C15.7676 11.8577 15.7578 11.8717 15.75 11.8872L15.7225 11.9344L15.7151 11.9296L15.7278 11.8989L15.7153 11.8792L16.5512 10.1766L16.6803 9.91387C16.7037 9.83751 16.7484 9.76028 16.7842 9.68732C16.8479 9.55747 16.9121 9.42787 16.974 9.29736C17.2564 8.70185 17.5535 8.11107 17.8434 7.51828C17.8995 7.40361 17.9518 7.28717 18.0111 7.17375C18.0391 7.12013 18.0938 7.05497 18.1108 7.00046C18.1191 6.97378 18.0982 6.95208 18.0847 6.92963C18.0459 6.90284 17.9559 6.89867 17.9061 6.88977C17.8358 6.87725 17.7675 6.8597 17.7 6.83849C17.4984 6.77515 17.302 6.69957 17.1012 6.63454C16.5923 6.46967 16.0767 6.31068 15.5629 6.15789C15.2043 6.05128 14.845 5.94257 14.4845 5.84129C14.0862 5.72938 13.6841 5.62355 13.2926 5.49402L13.2887 5.47904C13.2612 5.46549 13.2258 5.45657 13.1956 5.44776C13.1458 5.43324 13.094 5.41186 13.0438 5.40041L13.0309 5.39786L13.0308 5.34945C13.0582 5.2034 13.0665 5.03879 13.0679 4.89014Z" fill="#907AD6"/>
<path d="M18.1543 6.92811C18.2059 6.90465 18.3229 6.9149 18.3882 6.89648C18.4216 6.93049 18.4464 6.95406 18.4575 6.9986C18.446 7.01506 18.435 7.02717 18.4206 7.04157L18.4162 7.06726L18.3875 7.05871L18.3814 7.036L18.3923 7.00934C18.3749 6.98055 18.36 6.95683 18.3332 6.93359L18.3158 6.94841L18.3474 6.97712L18.3415 6.9986C18.3177 6.99907 18.3107 7.00075 18.2901 7.01312L18.2738 7.02395C18.2545 7.01134 18.2487 6.99924 18.2371 6.98113C18.2033 6.97439 18.18 6.94822 18.1543 6.92811Z" fill="#2C2A4A"/>
<path d="M14.0412 18.6709C14.0768 18.6862 14.1243 18.6806 14.1632 18.6809C14.2581 18.6817 14.3523 18.6805 14.4467 18.6895C14.6423 18.692 14.881 18.6594 15.0288 18.7922C15.0804 18.8386 15.1221 18.8976 15.1239 18.9643C15.1158 19.0503 15.0856 19.1164 15.0276 19.1861C14.6847 19.1878 14.3422 19.2048 13.9994 19.2136C13.8544 19.2174 13.6912 19.2334 13.5475 19.2178L13.5505 19.2407L12.8089 19.2552C12.0928 19.2555 11.3766 19.256 10.6605 19.2538C10.4328 19.2532 10.2046 19.2483 9.97835 19.244C9.87286 19.2421 9.76487 19.2496 9.66211 19.2338C9.58355 19.2217 9.49312 19.2355 9.4118 19.2264L9.40577 19.2069C9.4221 19.1924 9.41878 19.1902 9.42176 19.1709C9.36939 19.0884 9.34378 19.0137 9.36819 18.9183C9.38152 18.8663 9.4055 18.8143 9.45843 18.785C9.61441 18.6985 9.92481 18.722 10.103 18.7176C10.2148 18.7148 10.3472 18.6994 10.4567 18.7183L10.521 18.7336C10.6558 18.7671 10.84 18.7561 10.9814 18.7559C11.2728 18.7555 11.5641 18.7482 11.8555 18.7448C11.9578 18.7436 12.06 18.7421 12.1622 18.7406C12.1993 18.74 12.2558 18.7452 12.2902 18.735L12.3287 18.7167C12.4496 18.6811 12.6085 18.6845 12.7352 18.6898C12.8516 18.697 12.972 18.6915 13.0888 18.6913C13.2488 18.6911 13.4101 18.6941 13.5699 18.6869C13.7256 18.6798 13.8858 18.657 14.0412 18.6709Z" fill="url(#paint4_linear_117_13691)"/>
<path d="M12.3286 18.7167C12.4495 18.6811 12.6084 18.6845 12.7351 18.6898L12.7066 18.7267L12.29 18.735L12.3286 18.7167Z" fill="#907AD6"/>
<path d="M14.041 18.6709C14.0767 18.6862 14.1241 18.6806 14.1631 18.6809C14.2579 18.6817 14.3521 18.6805 14.4466 18.6895C14.3521 18.6926 14.2579 18.6925 14.1634 18.6926C14.1093 18.6927 14.051 18.6867 14.0002 18.704C13.9586 18.7183 13.9044 18.7148 13.8599 18.7159C13.7775 18.7181 13.6952 18.7191 13.6128 18.7198C13.3107 18.7223 13.0086 18.7221 12.7065 18.7267L12.7351 18.6898C12.8515 18.697 12.9718 18.6915 13.0886 18.6913C13.2486 18.6911 13.4099 18.6941 13.5697 18.6869C13.7254 18.6798 13.8856 18.657 14.041 18.6709Z" fill="#6E40DA"/>
<path d="M11.0868 18.8375C11.119 18.8374 11.15 18.8384 11.1815 18.8312C11.2142 18.8238 11.2458 18.826 11.2792 18.8286C11.3596 18.8349 11.4425 18.8314 11.5233 18.8312L11.5416 18.842L11.563 18.8339C11.5777 18.8431 11.5898 18.8518 11.6027 18.8631L11.6149 18.8742L11.6362 18.8662L11.6606 18.8715L11.7064 18.8742C11.7529 18.8832 11.7794 18.8859 11.8285 18.8849L11.8468 18.8742C11.9373 18.8739 12.0512 18.8618 12.1386 18.8796L11.2371 18.9072C11.0848 18.9101 10.9332 18.926 10.7812 18.9346C10.6625 18.9414 10.5431 18.9392 10.4247 18.944C10.3645 18.9465 10.3038 18.9475 10.2435 18.9509L10.2354 18.9333L10.266 18.9332C10.2919 18.918 10.309 18.9225 10.3392 18.9224C10.3685 18.9053 10.4137 18.9117 10.4491 18.9117C10.4823 18.8923 10.5429 18.901 10.5834 18.901C10.6139 18.8831 10.668 18.8903 10.7054 18.8902C10.7303 18.8757 10.7376 18.8795 10.7665 18.8795C10.7913 18.8649 10.7986 18.8688 10.8275 18.8687C10.858 18.8509 10.9122 18.858 10.9496 18.858L10.9678 18.8474C11.0012 18.848 11.0399 18.8519 11.072 18.8423L11.0868 18.8375Z" fill="#DABFFF"/>
<path d="M13.5473 19.2178C13.3794 19.1946 13.1843 19.2142 13.0127 19.2143L13.0187 19.207H13.214C13.2516 19.1989 13.2783 19.1969 13.3178 19.1962C13.5119 19.0892 13.7824 19.1145 13.9995 19.1042C14.1658 19.0963 14.328 19.0801 14.4911 19.0686C14.5734 19.0627 14.6641 19.0781 14.7445 19.0632C14.8556 19.0425 14.9383 19.0537 15.0473 19.0073L15.0578 19.0027L15.089 19.0124L15.1237 18.9644C15.1156 19.0504 15.0854 19.1164 15.0274 19.1862C14.6845 19.1879 14.342 19.2049 13.9992 19.2137C13.8542 19.2174 13.691 19.2334 13.5473 19.2178Z" fill="#907AD6"/>
<path d="M8.65002 11.6206L8.80256 11.9204C8.89517 11.9216 9.15818 11.9153 9.21724 11.9822C9.23193 11.9988 9.23618 12.0112 9.24065 12.0313C9.20242 12.1296 9.11443 12.2219 9.0438 12.3037C8.71782 12.6814 8.33227 12.9613 7.84868 13.1708C7.14368 13.4762 6.30564 13.5989 5.52959 13.4784C5.31685 13.4454 5.11045 13.3858 4.90679 13.3236C4.69695 13.2595 4.43357 13.1796 4.25928 13.0581C4.33567 13.0658 4.38794 13.0983 4.45537 13.126C4.53259 13.1577 4.61348 13.1925 4.69214 13.2205C4.87937 13.2871 5.07983 13.3431 5.27727 13.3804C5.38335 13.4004 5.69121 13.4521 5.77971 13.401L5.76152 13.3848L5.74321 13.3956L5.7127 13.3848C5.67415 13.4052 5.59307 13.3952 5.54785 13.3929C5.69548 13.3868 5.83599 13.3155 5.95676 13.2451C6.03279 13.2009 6.11279 13.1236 6.16728 13.0591L6.17769 13.0464C6.20237 13.0213 6.21196 12.9991 6.23181 12.9714C6.26382 12.9265 6.30217 12.8914 6.32759 12.8417C6.34795 12.8018 6.37634 12.7646 6.39287 12.7235L6.40078 12.7032C6.42324 12.6513 6.45095 12.5865 6.4592 12.5316C6.46538 12.4906 6.48831 12.4598 6.49665 12.4206C6.51279 12.3448 6.54414 12.2802 6.57678 12.209C6.60376 12.195 6.63459 12.1748 6.6647 12.1676C6.68865 12.1619 6.71208 12.1532 6.73467 12.144C6.75947 12.134 6.77927 12.1242 6.80735 12.1225C6.9001 12.117 6.9946 12.1296 7.0875 12.1235C7.1834 12.1172 7.27988 12.1031 7.37629 12.0963C7.42842 12.0926 7.48682 12.0976 7.53765 12.0905C7.60576 12.081 7.67527 12.0689 7.74517 12.0693V12.0635H7.60478C7.55603 12.0922 7.21453 12.0744 7.12729 12.0715L7.13408 12.0486C6.85781 12.0486 6.57292 12.0108 6.29636 12.0333L6.2677 12.0227C6.57273 12.0218 6.87776 12.0212 7.18279 12.0203C7.3196 12.0198 7.49033 12.0344 7.6231 12.0098V11.9938C7.58555 12.0047 7.53914 11.9996 7.49956 11.9997C7.41494 11.9998 7.33032 11.9998 7.2457 11.9996C7.21811 11.9995 7.18628 11.9915 7.16038 11.9961L7.14702 11.9991C7.11338 11.984 7.07119 11.987 7.03411 11.9857L7.09104 11.9806L7.09587 11.969C7.06616 11.9688 7.03354 11.9712 7.00559 11.9614L6.99443 11.9561C6.96936 11.9708 6.97302 11.9663 6.94561 11.9615C6.91306 11.936 6.86614 11.9497 6.82353 11.94C6.98315 11.9383 7.1416 11.9406 7.30278 11.9405C7.37617 11.9405 7.46186 11.9479 7.53396 11.9384C7.59365 11.9306 7.64949 11.9317 7.70754 11.9147L8.68657 11.913C8.70134 11.936 8.70024 11.9388 8.72783 11.948L8.76887 11.9293C8.69719 11.8471 8.66116 11.7222 8.65002 11.6206Z" fill="url(#paint5_linear_117_13691)"/>
<path d="M3.16797 12.0246L6.26795 12.0225L6.29661 12.0331C6.57317 12.0106 6.85806 12.0483 7.13433 12.0483L7.12754 12.0713C7.21477 12.0742 7.55628 12.0919 7.60503 12.0633H7.74541V12.069C7.67551 12.0687 7.60601 12.0807 7.53789 12.0903C7.48706 12.0974 7.42866 12.0924 7.37654 12.096C7.28013 12.1028 7.18364 12.117 7.08775 12.1233C6.99485 12.1294 6.90034 12.1168 6.80759 12.1223C6.77952 12.124 6.75972 12.1337 6.73491 12.1438C6.71233 12.1529 6.68889 12.1617 6.66494 12.1674C6.63484 12.1746 6.604 12.1948 6.57703 12.2087C6.54439 12.2799 6.51304 12.3446 6.4969 12.4204C6.48855 12.4595 6.46563 12.4904 6.45945 12.5314C6.4512 12.5863 6.42349 12.6511 6.40103 12.703L6.39312 12.7232C6.37659 12.7644 6.34819 12.8015 6.32783 12.8414C6.30242 12.8912 6.26406 12.9262 6.23206 12.9711C6.21221 12.9989 6.20261 13.0211 6.17793 13.0462L6.16753 13.0588C6.11304 13.1233 6.03303 13.2006 5.95701 13.2449C5.83623 13.3152 5.69573 13.3866 5.5481 13.3926C5.59331 13.395 5.67439 13.4049 5.71294 13.3846L5.74346 13.3953L5.76177 13.3846L5.77996 13.4007C5.69146 13.4519 5.38359 13.4002 5.27751 13.3801C5.08008 13.3428 4.87961 13.2869 4.69238 13.2202C4.61372 13.1922 4.53284 13.1575 4.45562 13.1257C4.38818 13.098 4.33591 13.0655 4.25952 13.0579C4.22507 13.0463 4.17334 13.0182 4.14883 12.9952C4.06995 12.9594 3.99626 12.9094 3.92439 12.8635C3.58679 12.6482 3.32087 12.3687 3.16797 12.0246Z" fill="url(#paint6_linear_117_13691)"/>
<path d="M6.29673 12.033C6.57329 12.0105 6.85818 12.0483 7.13445 12.0482L7.12766 12.0712C7.08748 12.0703 7.02776 12.0601 6.9948 12.0795L6.22822 12.1093L6.27454 12.0954V12.0874L6.18914 12.0847L6.17083 12.0955L5.95996 12.0429C6.05837 12.0431 6.17922 12.0548 6.2748 12.0374L6.29673 12.033Z" fill="#DABFFF"/>
<path d="M15.7155 11.8793L15.728 11.899L15.7154 11.9297L15.7228 11.9345L15.7502 11.8873C15.7581 11.8718 15.7678 11.8578 15.7777 11.8433C15.7816 11.9075 15.6992 12.0227 15.6733 12.0896C15.6479 12.1552 15.6293 12.2236 15.6084 12.2905L15.6768 12.2889L16.1592 12.2872C16.3525 12.2645 16.5731 12.2805 16.7687 12.2801C17.1631 12.2793 17.5577 12.2766 17.952 12.2802L18.1422 12.2786L18.1764 12.2575L18.213 12.2676C18.3135 12.2987 18.5109 12.2771 18.6223 12.2762L19.8314 12.28C19.8652 12.2875 19.8963 12.2949 19.9282 12.3078L19.9159 12.3164L20.1819 12.3198C20.2535 12.3186 20.3244 12.3149 20.3951 12.3266C20.4051 12.3479 20.4051 12.3631 20.4043 12.386C20.3303 12.3916 20.2567 12.3988 20.1824 12.3947L18.8667 12.4131C18.9743 12.4348 19.1065 12.423 19.2174 12.4199C19.2192 12.4502 19.2195 12.4797 19.2281 12.5091C19.2398 12.5491 19.2323 12.5936 19.2203 12.6327C19.2065 12.6773 19.1895 12.7158 19.1714 12.7593C19.1495 12.8118 19.0968 12.8669 19.0605 12.913C18.9505 13.0531 18.8389 13.2111 18.6769 13.3095L18.6193 13.3474C18.5988 13.3616 18.5769 13.3667 18.5564 13.3809C18.5089 13.414 18.4581 13.4301 18.4062 13.4544C18.3538 13.4788 18.3063 13.5104 18.2529 13.5343C18.1251 13.5914 17.9815 13.6348 17.8423 13.6636C17.7411 13.6846 17.6196 13.6915 17.526 13.7297C17.211 13.68 16.9028 13.617 16.6146 13.491C16.5399 13.4583 16.4609 13.4267 16.3949 13.3818C16.3434 13.3649 16.2916 13.333 16.2447 13.3075C16.1113 13.235 15.9764 13.152 15.8604 13.0593C15.5939 12.8465 15.3803 12.6092 15.3608 12.2831C15.427 12.2793 15.4938 12.2858 15.5598 12.2897C15.5722 12.1508 15.6426 12.0012 15.7155 11.8793Z" fill="#DABFFF"/>
<path d="M18.142 12.2789L18.1761 12.2578L18.2128 12.2679C18.3133 12.299 18.5107 12.2774 18.622 12.2765L19.8312 12.2803C19.8649 12.2878 19.896 12.2952 19.9279 12.3081L19.9156 12.3167L20.1816 12.3202C20.2532 12.3189 20.3241 12.3152 20.3948 12.3269C20.4048 12.3482 20.4048 12.3634 20.4041 12.3863C20.3301 12.3919 20.2565 12.3991 20.1822 12.395L20.1944 12.3827L20.2391 12.3807C20.2753 12.3594 20.3067 12.3804 20.3429 12.3592L20.3333 12.3398C20.3079 12.338 20.2809 12.3348 20.2559 12.3398C20.2338 12.3442 20.2235 12.3487 20.2003 12.3439C20.0733 12.3175 19.9313 12.3283 19.801 12.3289C19.6133 12.3298 19.4259 12.3297 19.2382 12.3276C19.182 12.3585 19.1107 12.3162 19.0536 12.3555C18.9103 12.3508 18.764 12.3651 18.6187 12.3651C18.5689 12.3651 18.5113 12.3707 18.4636 12.3595C18.4414 12.3542 18.453 12.3539 18.4322 12.3551C18.4116 12.3563 18.392 12.3566 18.3715 12.3537C18.3531 12.3511 18.3374 12.3457 18.3184 12.345C18.2808 12.3437 18.2539 12.3387 18.2184 12.3273L18.2067 12.3L18.1168 12.3015L18.106 12.3162L18.1247 12.3272L18.1146 12.3413C17.9965 12.293 17.8034 12.3719 17.6841 12.3187L17.6818 12.3055H17.7245L17.7306 12.3L17.2935 12.297C17.4363 12.2899 17.581 12.2945 17.7241 12.2943C17.7868 12.2942 17.8687 12.3019 17.9285 12.2868L17.9518 12.2805L18.142 12.2789Z" fill="url(#paint7_linear_117_13691)"/>
<path d="M12.0085 20.8176L15.3186 20.8037L15.3061 20.8047C15.2147 20.8115 15.1221 20.8091 15.0304 20.8092C14.9942 20.8092 14.9453 20.8036 14.9109 20.813C14.9353 20.8319 14.9484 20.8353 14.9779 20.8451C15.0488 20.8685 15.1082 20.9078 15.1377 20.9711C15.1684 21.0368 15.1761 21.0889 15.1557 21.1567L15.1538 21.1691C15.1391 21.2369 15.0741 21.3043 15.0096 21.3406C14.8858 21.41 14.6459 21.3859 14.5014 21.3873C14.4464 21.3878 14.3911 21.394 14.335 21.3941C14.2431 21.5058 14.1457 21.6167 14.0349 21.7147C13.9987 21.7467 13.9616 21.786 13.916 21.8071C13.8708 21.8279 13.8322 21.8468 13.7816 21.856L13.7645 21.8595C13.7289 21.8657 13.6933 21.8661 13.6578 21.873C13.6148 21.8814 13.5707 21.8754 13.5283 21.8842C13.4874 21.8928 13.4349 21.888 13.3925 21.8883C13.3047 21.8887 13.217 21.8891 13.1292 21.8893C13.1153 21.8893 13.0525 21.885 13.0431 21.8896C13.0373 21.8921 13.0351 21.8988 13.0312 21.9033L13.031 22H11.2841L11.2662 21.8801L10.8215 21.861C10.6541 21.8386 10.5208 21.8034 10.4184 21.6797C10.3994 21.5941 10.4015 21.5123 10.416 21.4266C10.2173 21.4283 10.0292 21.4059 9.83264 21.3844C9.72985 21.3732 9.58395 21.367 9.49765 21.3109C9.436 21.2708 9.37731 21.1868 9.37111 21.1191C9.36484 21.0505 9.38815 20.991 9.44352 20.9416C9.49348 20.8969 9.55432 20.8738 9.62421 20.8655C9.69955 20.8566 9.78488 20.8627 9.86118 20.8627C10.0162 20.8628 10.1712 20.8639 10.3262 20.8636C10.9337 20.8626 11.5448 20.87 12.152 20.8566V20.8506C11.7876 20.8508 11.4232 20.851 11.0588 20.8509C10.9735 20.8509 10.8882 20.8509 10.8029 20.8509C10.756 20.8509 10.7021 20.856 10.6566 20.8452C11.0101 20.8452 11.3636 20.8452 11.717 20.8451C11.8801 20.8451 12.0782 20.8628 12.237 20.8351L10.6903 20.8282C10.8369 20.8074 11.007 20.8193 11.1556 20.8191C11.4399 20.8189 11.7242 20.8192 12.0085 20.8176Z" fill="url(#paint8_linear_117_13691)"/>
<path d="M8.74299 20.0277L16.0374 20.0059L16.0707 20.0245L16.0679 20.1917L16.0041 20.2652C15.8809 20.3689 15.7579 20.4729 15.6346 20.5765C15.5379 20.6578 15.4391 20.7497 15.3188 20.8036L12.0088 20.8175C11.7244 20.8191 11.4401 20.8188 11.1558 20.819C11.0072 20.8192 10.8371 20.8073 10.6906 20.8281C10.4781 20.8289 10.2657 20.8296 10.0532 20.83C9.85068 20.8305 9.65679 20.8324 9.45698 20.7972C9.345 20.7828 9.24021 20.7602 9.14214 20.7079C9.05772 20.6628 8.99336 20.5946 8.91636 20.541C8.70872 20.3966 8.43372 20.263 8.35938 20.0205L8.74299 20.0277Z" fill="url(#paint9_linear_117_13691)"/>
<path d="M10.9231 20.8072C10.9981 20.7679 11.0242 20.7725 11.1031 20.7593C11.1919 20.7445 11.282 20.7484 11.3725 20.7484C11.3989 20.7484 11.4369 20.7536 11.462 20.7494C11.5233 20.739 11.4459 20.743 11.5056 20.7412L11.6761 20.7281C11.7206 20.7202 11.7693 20.7236 11.8113 20.7133C11.8774 20.6971 11.9573 20.6942 12.0263 20.6815C12.082 20.6712 12.1361 20.6512 12.1915 20.6421C12.2253 20.6366 12.2588 20.6395 12.2893 20.6231L12.305 20.6141C12.3293 20.6155 12.3519 20.6168 12.376 20.6127L12.5116 20.5912C12.5333 20.5887 12.5517 20.5869 12.5732 20.5822L12.6458 20.5698C12.7162 20.5616 12.7888 20.534 12.8577 20.5338C12.8792 20.5337 12.8929 20.5335 12.9146 20.5295C12.93 20.5267 12.9415 20.5251 12.9575 20.5249C13.0233 20.524 13.0772 20.5015 13.1416 20.5014C13.1655 20.5014 13.1874 20.502 13.2109 20.4981L13.3297 20.4829L13.8303 20.4184L13.8673 20.4155C13.972 20.3987 14.0832 20.4078 14.1871 20.3907C14.2601 20.3787 14.3433 20.3837 14.4135 20.3679C14.5174 20.3445 14.6385 20.3552 14.7462 20.3403C14.8504 20.326 14.9515 20.3197 15.0569 20.3197C15.1289 20.3196 15.2237 20.3299 15.2928 20.3144C15.3824 20.2942 15.4848 20.2955 15.5763 20.2758C15.6677 20.2562 15.7661 20.2739 15.8563 20.2512C15.9145 20.2365 15.9499 20.2425 16.0041 20.2654C15.881 20.3692 15.758 20.4731 15.6346 20.5767C15.5379 20.658 15.4392 20.7499 15.3189 20.8038L12.0088 20.8177C11.7245 20.8193 11.4402 20.819 11.1558 20.8193C11.0073 20.8194 10.8372 20.8075 10.6906 20.8283C10.4782 20.8291 10.2657 20.8298 10.0533 20.8303C9.85073 20.8307 9.65684 20.8327 9.45703 20.7974C9.5438 20.7636 9.67749 20.7652 9.76516 20.7956C9.77864 20.8003 9.79053 20.806 9.80239 20.8132C9.9238 20.8127 10.044 20.819 10.1648 20.8188C10.202 20.8187 10.2478 20.8257 10.2785 20.8077L10.9231 20.8072Z" fill="#2C2A4A"/>
<path d="M8.88938 19.3759C9.03535 19.2261 9.20896 19.1886 9.42173 19.1709C9.41875 19.1902 9.42207 19.1924 9.40574 19.2069L9.41177 19.2265C9.49309 19.2356 9.58352 19.2217 9.66209 19.2338C9.76484 19.2496 9.87283 19.2421 9.97832 19.2441C10.2046 19.2483 10.4327 19.2532 10.6604 19.2539C11.3766 19.256 12.0927 19.2556 12.8089 19.2552L13.5504 19.2408C13.9293 19.22 14.3131 19.2264 14.6926 19.2179C14.8283 19.2149 14.9646 19.2118 15.1002 19.2065C15.1528 19.2045 15.213 19.1948 15.265 19.1982C15.298 19.2003 15.322 19.2135 15.3499 19.2279C15.5146 19.3146 15.6684 19.4265 15.8104 19.5396C15.9066 19.6162 16.0034 19.6936 16.0774 19.7881C16.0772 19.8305 16.0893 19.9626 16.0584 19.9919L16.0374 20.0059L8.74299 20.0278L8.35938 20.0205C8.3981 19.7975 8.64688 19.611 8.80718 19.446L8.88938 19.3759Z" fill="url(#paint10_linear_117_13691)"/>
<path d="M8.88916 19.3759C9.03513 19.2261 9.20874 19.1886 9.42151 19.1709C9.41853 19.1902 9.42185 19.1924 9.40552 19.2069L9.41155 19.2265C9.49287 19.2356 9.5833 19.2217 9.66187 19.2338C9.76462 19.2496 9.87261 19.2421 9.9781 19.2441C10.2043 19.2483 10.4325 19.2532 10.6602 19.2539C11.3764 19.256 12.0925 19.2556 12.8087 19.2552L13.5502 19.2408C13.9291 19.22 14.3129 19.2264 14.6924 19.2179C14.8281 19.2149 14.9644 19.2118 15.1 19.2065C15.1525 19.2045 15.2128 19.1948 15.2648 19.1982C15.2978 19.2003 15.3218 19.2135 15.3496 19.2279C14.8432 19.3108 14.3244 19.2609 13.8144 19.291L12.9234 19.29C12.3274 19.2969 11.7313 19.2932 11.1352 19.2962C10.9068 19.2973 10.6788 19.3067 10.4502 19.3072C10.2276 19.3076 10.0046 19.3069 9.78193 19.303C9.65222 19.3007 9.52263 19.2952 9.39294 19.2922C9.28579 19.2897 9.18499 19.2837 9.08191 19.3157L9.07275 19.3063C9.09114 19.2938 9.10986 19.2856 9.13074 19.2768L9.13079 19.2633L9.14905 19.2552C9.05623 19.2714 8.98838 19.3199 8.91833 19.3736L8.88916 19.3759Z" fill="#DABFFF"/>
<path d="M16.9464 9.59007C17.0657 9.37232 17.1623 9.14517 17.2702 8.923C17.475 8.50152 17.6833 8.08139 17.8799 7.65695C17.9536 7.49781 18.0198 7.33605 18.0917 7.1763C18.1174 7.11908 18.1324 7.0577 18.1667 7.00391L18.1681 7.02144C18.1771 7.03914 18.1908 7.05532 18.1862 7.07448C18.142 7.25774 18.1656 7.46803 18.1619 7.65561C18.1521 8.15951 18.1518 8.66323 18.15 9.16717C18.1477 9.83963 18.1422 10.5122 18.1389 11.1847C18.1372 11.5475 18.1189 11.9168 18.1421 12.2787L17.952 12.2803C17.5576 12.2767 17.163 12.2794 16.7687 12.2802C16.573 12.2806 16.3524 12.2646 16.1592 12.2873L15.6768 12.289C15.7028 12.1032 15.8173 11.9359 15.8982 11.7661C16.0541 11.4385 16.2167 11.114 16.374 10.787C16.411 10.7101 16.4893 10.598 16.497 10.519C16.4999 10.4895 16.5108 10.4714 16.5292 10.4468C16.5439 10.4272 16.5388 10.436 16.5509 10.4142L16.5579 10.4008C16.6354 10.2807 16.6834 10.1338 16.7429 10.0052C16.8074 9.86554 16.8846 9.73081 16.9464 9.59007Z" fill="#301050" fill-opacity="0.8"/>
<path d="M18.2129 12.2679L18.2358 7.07392C18.2813 7.03914 18.3231 7.04296 18.3815 7.03613L18.3877 7.05884L18.4163 7.06739L18.5382 7.36605L20.3074 11.1865C20.3971 11.3714 20.4746 11.5613 20.5629 11.7468C20.5709 11.7636 20.5763 11.7754 20.5834 11.7924C20.5917 11.8127 20.608 11.8324 20.6172 11.8542L20.7369 12.1082C20.7687 12.1587 20.7895 12.2107 20.8111 12.2649C20.7719 12.2638 20.7325 12.2582 20.6973 12.276C20.7058 12.3025 20.7114 12.3261 20.7146 12.3537C20.6661 12.3897 20.4718 12.3888 20.4042 12.3863C20.4049 12.3634 20.4049 12.3482 20.3949 12.3269C20.3242 12.3152 20.2533 12.3189 20.1817 12.3201L19.9157 12.3167L19.928 12.3081C19.8961 12.2952 19.865 12.2878 19.8313 12.2803L18.6221 12.2765C18.5108 12.2774 18.3134 12.299 18.2129 12.2679Z" fill="#301050" fill-opacity="0.8"/>
<path d="M18.3879 7.05859L18.4165 7.06714L18.5384 7.3658L20.3077 11.1863C20.3973 11.3712 20.4748 11.5611 20.5631 11.7465C20.5712 11.7634 20.5766 11.7751 20.5836 11.7922C20.592 11.8124 20.6082 11.8322 20.6175 11.8539L20.7372 12.108C20.769 12.1584 20.7898 12.2105 20.8114 12.2646C20.7721 12.2636 20.7328 12.258 20.6975 12.2758C20.706 12.3023 20.7116 12.3259 20.7148 12.3535C20.6663 12.3895 20.472 12.3885 20.4044 12.3861C20.4051 12.3632 20.4052 12.348 20.3952 12.3266C20.3245 12.3149 20.2536 12.3186 20.1819 12.3199L19.916 12.3165L19.9283 12.3078C19.8964 12.295 19.8653 12.2875 19.8315 12.28L18.6224 12.2762L20.694 12.2691C20.6375 12.224 20.6179 12.1693 20.601 12.105C20.5632 12.0277 20.5296 11.9276 20.479 11.8581C20.4687 11.8439 20.4737 11.8532 20.4664 11.8359L20.2035 11.2815L18.4628 7.43171C18.4252 7.34853 18.3877 7.26525 18.3495 7.18224C18.3355 7.15179 18.3117 7.12036 18.3217 7.08846L18.3879 7.05859Z" fill="#907AD6"/>
<path d="M11.9854 5.97824C11.988 5.94803 11.9855 5.91286 12.0056 5.88721L12.0733 5.89505C12.0955 5.94915 12.0773 6.1529 12.0952 6.17673C12.0993 6.18214 12.1073 6.18425 12.1134 6.18801L12.1302 6.18425C12.1412 6.20608 12.1388 6.21394 12.1438 6.23577L12.1482 6.24653C12.154 6.26147 12.1527 6.27399 12.1522 6.28952L12.1964 6.33408C12.2048 6.51558 12.2064 6.69635 12.2052 6.87794C12.2045 6.97885 12.1941 7.08982 12.2068 7.18985L12.202 7.30438L12.2044 7.31549C12.2101 7.34204 12.2166 7.36471 12.2285 7.38961C12.2929 7.52339 12.2595 7.74417 12.258 7.88809C12.2555 8.13724 12.2504 8.38575 12.246 8.63482C12.2424 8.83074 12.2457 9.02953 12.2484 9.22556C12.2507 9.39185 12.2696 9.55704 12.2694 9.72391C12.2693 9.82014 12.2657 9.91639 12.261 10.0125C12.2581 10.0728 12.2493 10.1352 12.2583 10.1952C12.2684 10.2304 12.273 10.2513 12.2624 10.2868C12.2491 10.2952 12.2365 10.3027 12.2222 10.3098L12.2126 10.3054C12.2014 10.333 12.2 10.3491 12.2012 10.3782L12.2006 10.9665C12.1999 11.0482 12.1858 11.1479 12.2129 11.2256C12.2175 11.2386 12.22 11.2517 12.225 11.2648C12.2579 11.3503 12.2573 11.4496 12.2593 11.5391C12.2625 11.6763 12.2616 11.8138 12.2621 11.951C12.2626 12.0682 12.2752 12.191 12.2596 12.3073C12.3173 12.3141 12.3795 12.3266 12.4375 12.3194C12.4499 12.329 12.4645 12.3368 12.4748 12.3481C12.4898 12.3646 12.6655 13.4783 12.6709 13.5764L12.6709 13.5873C12.7283 13.8609 12.7662 14.1426 12.8091 14.4185C12.8285 14.5432 12.8652 14.6827 12.8667 14.8077C12.8993 14.9586 12.9189 15.1128 12.9443 15.2649C12.9592 15.3539 12.9837 15.4457 12.9896 15.5353C12.9998 15.6881 12.9927 15.8439 12.9922 15.9971C12.9914 16.2263 12.9933 16.4555 12.9937 16.6847C12.9946 17.2328 12.9974 17.781 12.9977 18.3291C13.2026 18.3277 13.4075 18.3264 13.6124 18.3255C13.6855 18.3252 13.7826 18.3135 13.8518 18.3264C13.8814 18.3319 13.9052 18.3457 13.9304 18.3598C13.9832 18.3892 14.0366 18.4259 14.0524 18.4819C14.069 18.5409 14.0506 18.6116 14.041 18.671C13.8857 18.6571 13.7254 18.6799 13.5697 18.687C13.4099 18.6942 13.2486 18.6912 13.0886 18.6914C12.9718 18.6916 12.8515 18.6971 12.7351 18.6899C12.6083 18.6846 12.4494 18.6812 12.3286 18.7168L12.29 18.7351C12.2556 18.7453 12.1992 18.7402 12.162 18.7407C12.0598 18.7422 11.9576 18.7437 11.8554 18.7449C11.5639 18.7483 11.2727 18.7556 10.9812 18.756C10.8398 18.7562 10.6556 18.7672 10.5208 18.7337L10.4565 18.7185L10.4522 18.6951L10.4262 18.6753C10.4097 18.6461 10.4019 18.621 10.4005 18.5881C10.3971 18.5105 10.406 18.4422 10.4719 18.3849C10.5612 18.3073 10.9282 18.344 11.0552 18.3457C11.1922 18.3375 11.3425 18.3335 11.4789 18.3492C11.4722 17.7117 11.4828 17.0735 11.485 16.4359C11.4856 16.2467 11.4859 16.0575 11.4865 15.8683C11.4868 15.7591 11.4762 15.6395 11.4981 15.532C11.495 15.445 11.5175 15.3504 11.5312 15.2638C11.5522 15.1308 11.5708 14.9976 11.5919 14.8647C11.6303 14.6239 11.653 14.373 11.7063 14.1349C11.707 14.0341 11.7334 13.922 11.7483 13.8219C11.7836 13.5847 11.823 13.348 11.8591 13.1109C11.8831 12.9535 11.9021 12.7953 11.9229 12.6375C11.9358 12.54 11.9442 12.4352 11.9771 12.3412C11.9991 12.2782 11.9915 12.2087 11.9917 12.143C11.9921 12.0386 11.9921 11.9342 11.992 11.8298C11.9726 10.3481 11.9824 8.86455 11.9833 7.38269C11.9835 7.06305 11.9818 6.74345 11.9796 6.42382C11.979 6.33228 11.9784 6.24073 11.9779 6.14919C11.9776 6.09268 11.9716 6.03349 11.9854 5.97824Z" fill="#DABFFF"/>
<path d="M12.4376 12.3193C12.4501 12.3289 12.4646 12.3367 12.475 12.3481C12.49 12.3645 12.6657 13.4783 12.6711 13.5764L12.6711 13.5872C12.7285 13.8608 12.7664 14.1425 12.8093 14.4184C12.8287 14.5431 12.8654 14.6827 12.8668 14.8077C12.8995 14.9586 12.9191 15.1128 12.9445 15.2648C12.9594 15.3538 12.9839 15.4456 12.9898 15.5352C13 15.688 12.9929 15.8439 12.9924 15.997C12.9916 16.2262 12.9935 16.4554 12.9939 16.6846C12.9948 17.2327 12.9976 17.7809 12.9979 18.329C13.2028 18.3277 13.4077 18.3264 13.6126 18.3255C13.6857 18.3252 13.7828 18.3135 13.852 18.3263C13.8816 18.3318 13.9054 18.3457 13.9305 18.3597C13.9833 18.3891 14.0368 18.4259 14.0526 18.4818C14.0692 18.5409 14.0508 18.6115 14.0412 18.671C13.8858 18.657 13.7256 18.6798 13.5699 18.6869C13.4101 18.6941 13.2488 18.6911 13.0888 18.6914C12.972 18.6916 12.8517 18.6971 12.7353 18.6899C12.6085 18.6846 12.4496 18.6812 12.3288 18.7167C12.2982 18.7139 12.2957 18.7157 12.2743 18.6968H12.2438L12.2256 18.7087C12.1994 18.6946 12.1586 18.7047 12.1278 18.7021C12.0322 18.694 11.9362 18.7006 11.8403 18.6902C11.9189 18.6769 11.9923 18.6749 12.0722 18.6753C12.1236 18.6247 12.1857 18.5631 12.2179 18.501L12.2782 18.3851L12.1348 18.3834L12.1374 18.3712C12.2059 18.372 12.2773 18.3769 12.3453 18.3688C12.3065 18.3628 12.228 18.3669 12.2011 18.3444C12.2367 18.3237 12.286 18.3275 12.3287 18.3248C12.4059 18.332 12.4829 18.3051 12.5611 18.3162L12.5733 18.3181L12.639 18.3272C12.6928 18.3366 12.7875 18.3481 12.8343 18.3207C12.8562 18.2412 12.8397 18.1458 12.837 18.064C12.832 17.9119 12.8275 17.76 12.828 17.6079C12.8296 17.0629 12.8455 16.5188 12.8413 15.9735C12.8401 15.8171 12.8489 15.6581 12.8391 15.502C12.8311 15.376 12.8026 15.2503 12.7859 15.1249C12.7668 14.9815 12.7578 14.8372 12.7373 14.694C12.7224 14.5895 12.6972 14.4849 12.6955 14.3794L12.6954 14.3669L12.6958 14.3598C12.6291 14.1532 12.639 13.9113 12.6105 13.6967C12.5493 13.2369 12.4672 12.7825 12.4376 12.3193Z" fill="#907AD6"/>
<path d="M12.3453 18.3691L12.5917 18.3826C12.6293 18.3854 12.6912 18.392 12.7183 18.3704L12.7014 18.3533C12.7427 18.3505 12.7697 18.3418 12.8055 18.3612C12.8353 18.3504 12.866 18.348 12.8976 18.3442C12.8776 18.3507 12.8596 18.3553 12.842 18.366L12.9334 18.3845C13.0043 18.3963 13.1075 18.3807 13.1822 18.3782C13.3565 18.3726 13.5429 18.3796 13.715 18.3583L13.9305 18.36C13.9833 18.3894 14.0368 18.4262 14.0526 18.4822C14.0692 18.5412 14.0508 18.6118 14.0412 18.6713C13.8858 18.6574 13.7256 18.6802 13.5699 18.6872C13.4101 18.6945 13.2488 18.6914 13.0888 18.6917C12.972 18.6919 12.8517 18.6974 12.7353 18.6902C12.6085 18.6849 12.4496 18.6815 12.3288 18.717C12.2982 18.7142 12.2957 18.716 12.2743 18.6971H12.2438L12.2256 18.709C12.1994 18.6949 12.1586 18.705 12.1278 18.7024C12.0322 18.6943 11.9362 18.701 11.8403 18.6905C11.9189 18.6772 11.9923 18.6752 12.0722 18.6756C12.1236 18.625 12.1857 18.5634 12.2179 18.5013L12.2782 18.3854L12.1348 18.3837L12.1374 18.3715C12.2059 18.3723 12.2773 18.3772 12.3453 18.3691Z" fill="url(#paint11_linear_117_13691)"/>
<path d="M11.9855 5.97824C11.9881 5.94803 11.9856 5.91286 12.0057 5.88721L12.0734 5.89505C12.0957 5.94915 12.0774 6.1529 12.0954 6.17673C12.0995 6.18214 12.1075 6.18425 12.1135 6.18801L12.1304 6.18425C12.1414 6.20608 12.1389 6.21394 12.144 6.23577L12.1484 6.24653C12.1542 6.26146 12.1529 6.27399 12.1523 6.28952L12.1966 6.33408C12.205 6.51558 12.2066 6.69635 12.2054 6.87794C12.2047 6.97885 12.1943 7.08982 12.207 7.18985L12.2022 7.30438L12.1805 10.9637L12.1963 12.2998C12.2123 12.3067 12.2352 12.3109 12.242 12.3264C12.2559 12.3581 12.2448 12.4101 12.2428 12.4439C12.2372 12.5372 12.2312 12.6306 12.2289 12.7241C12.2164 13.2312 12.2204 13.7482 12.2485 14.2548C12.2524 14.3265 12.2422 14.4281 12.2698 14.4922C12.2817 14.5197 12.2746 14.5727 12.2746 14.6026C12.2747 14.6501 12.2861 14.6928 12.2876 14.7375C12.2888 14.7724 12.2784 14.8071 12.2784 14.8397C12.2789 15.0636 12.2942 15.2927 12.2995 15.517C12.3053 15.7689 12.2938 16.0219 12.2989 16.2731C12.3048 16.5663 12.3099 16.859 12.3109 17.1526C12.3111 17.225 12.3222 17.3155 12.3037 17.3858C12.2988 17.4043 12.2995 17.395 12.3051 17.4143C12.3192 17.4623 12.3177 17.5664 12.3057 17.6154C12.3017 17.6317 12.306 17.6406 12.3088 17.6564C12.3237 17.7406 12.3255 17.8961 12.3033 17.9783C12.295 18.0092 12.3073 18.0323 12.3108 18.063C12.3162 18.1114 12.3068 18.1556 12.2986 18.2027C12.2926 18.2372 12.2996 18.2688 12.2861 18.3028C12.1789 18.3175 12.0725 18.3377 11.9636 18.3388L11.5641 18.3442L11.5601 17.978C11.562 17.464 11.5671 16.9502 11.5711 16.4364C11.5732 16.1651 11.5624 15.8894 11.5803 15.6187C11.6079 15.2001 11.675 14.7824 11.7312 14.3662L11.7366 14.3484C11.7752 14.2048 11.7844 14.0479 11.8031 13.901C11.8311 13.682 11.8614 13.4631 11.8897 13.2441C11.9134 13.0606 11.9339 12.8749 11.9615 12.6919C11.979 12.5756 12.0071 12.4614 12.0168 12.344C12.019 12.3168 12.0057 12.3023 12.005 12.2766C12.0024 12.1733 12.0049 12.0694 12.0047 11.966C12.0046 11.927 12.0144 11.8633 11.9922 11.8298C11.9728 10.3481 11.9825 8.86455 11.9835 7.38269C11.9837 7.06305 11.9819 6.74345 11.9798 6.42382C11.9792 6.33228 11.9785 6.24073 11.978 6.14919C11.9777 6.09268 11.9717 6.03349 11.9855 5.97824Z" fill="url(#paint12_linear_117_13691)"/>
</g>
<defs>
<linearGradient id="paint0_linear_117_13691" x1="12.1474" y1="2.76451" x2="12.0177" y2="2.73234" gradientUnits="userSpaceOnUse">
<stop stop-color="#F2E5F2"/>
<stop offset="1" stop-color="#FBF9FA"/>
</linearGradient>
<linearGradient id="paint1_linear_117_13691" x1="12.7729" y1="5.10043" x2="13.0574" y2="5.10596" gradientUnits="userSpaceOnUse">
<stop stop-color="#5A26B8"/>
<stop offset="1" stop-color="#7E46D3"/>
</linearGradient>
<linearGradient id="paint2_linear_117_13691" x1="19.9856" y1="13.2884" x2="19.6849" y2="12.2777" gradientUnits="userSpaceOnUse">
<stop stop-color="#533C97"/>
<stop offset="1" stop-color="#7E56D2"/>
</linearGradient>
<linearGradient id="paint3_linear_117_13691" x1="9.11271" y1="6.28866" x2="8.13543" y2="3.83613" gradientUnits="userSpaceOnUse">
<stop stop-color="#9157ED"/>
<stop offset="1" stop-color="#EAC5F7"/>
</linearGradient>
<linearGradient id="paint4_linear_117_13691" x1="12.281" y1="19.3259" x2="12.1891" y2="18.4733" gradientUnits="userSpaceOnUse">
<stop stop-color="#9961F2"/>
<stop offset="1" stop-color="#FFE5FF"/>
</linearGradient>
<linearGradient id="paint5_linear_117_13691" x1="7.84232" y1="13.2256" x2="6.91199" y2="11.8738" gradientUnits="userSpaceOnUse">
<stop stop-color="#553991"/>
<stop offset="1" stop-color="#AD7BF9"/>
</linearGradient>
<linearGradient id="paint6_linear_117_13691" x1="7.31186" y1="13.0194" x2="3.49489" y2="11.313" gradientUnits="userSpaceOnUse">
<stop stop-color="#9D58EA"/>
<stop offset="1" stop-color="white"/>
</linearGradient>
<linearGradient id="paint7_linear_117_13691" x1="19.0406" y1="12.4536" x2="19.1003" y2="12.1383" gradientUnits="userSpaceOnUse">
<stop stop-color="#DFB0EE"/>
<stop offset="1" stop-color="#B488FC"/>
</linearGradient>
<linearGradient id="paint8_linear_117_13691" x1="13.4307" y1="22.3935" x2="11.478" y2="19.5547" gradientUnits="userSpaceOnUse">
<stop stop-color="#0F0D1D"/>
<stop offset="1" stop-color="#36204A"/>
</linearGradient>
<linearGradient id="paint9_linear_117_13691" x1="12.2883" y1="20.6803" x2="12.2053" y2="19.7087" gradientUnits="userSpaceOnUse">
<stop stop-color="#362464"/>
<stop offset="1" stop-color="#623CC4"/>
</linearGradient>
<linearGradient id="paint10_linear_117_13691" x1="12.2858" y1="20.4068" x2="12.1228" y2="18.9206" gradientUnits="userSpaceOnUse">
<stop stop-color="#9E5FF5"/>
<stop offset="1" stop-color="#FFEAFF"/>
</linearGradient>
<linearGradient id="paint11_linear_117_13691" x1="13.0804" y1="18.7114" x2="13.0198" y2="18.277" gradientUnits="userSpaceOnUse">
<stop stop-color="#A775F0"/>
<stop offset="1" stop-color="#E0ABFF"/>
</linearGradient>
<linearGradient id="paint12_linear_117_13691" x1="12.4554" y1="12.1249" x2="11.6866" y2="12.1041" gradientUnits="userSpaceOnUse">
<stop stop-color="#DFAAFA"/>
<stop offset="1" stop-color="#FFFFFC"/>
</linearGradient>
<clipPath id="clip0_117_13691">
<rect width="25" height="22" fill="white"/>
</clipPath>
</defs>
</svg>
